<svg xmlns:xlink="http://www.w3.org/1999/xlink" version="1.1"
     style="font-family:'lucida grande', 'lucida sans unicode', arial, helvetica, sans-serif;font-size:12px;"
     xmlns="http://www.w3.org/2000/svg" width="600" height="600">
    <desc>Created with Highcharts 4.0.4</desc>
    <defs>
        <clipPath id="highcharts-7">
            <rect x="0" y="0" width="452" height="507"></rect>
        </clipPath>
    </defs>
    <rect x="0" y="0" width="600" height="600" strokeWidth="0" fill="#FFFFFF" class=" highcharts-background"></rect>
    <g class="highcharts-grid"></g>
    <g class="highcharts-grid">
        <path fill="none" d="M 74 53.5 L 526 53.5" stroke="#C0C0C0" stroke-width="1" opacity="1"></path>
        <path fill="none" d="M 74 109.5 L 526 109.5" stroke="#C0C0C0" stroke-width="1" opacity="1"></path>
        <path fill="none" d="M 74 166.5 L 526 166.5" stroke="#C0C0C0" stroke-width="1" opacity="1"></path>
        <path fill="none" d="M 74 222.5 L 526 222.5" stroke="#C0C0C0" stroke-width="1" opacity="1"></path>
        <path fill="none" d="M 74 278.5 L 526 278.5" stroke="#C0C0C0" stroke-width="1" opacity="1"></path>
        <path fill="none" d="M 74 335.5 L 526 335.5" stroke="#C0C0C0" stroke-width="1" opacity="1"></path>
        <path fill="none" d="M 74 391.5 L 526 391.5" stroke="#C0C0C0" stroke-width="1" opacity="1"></path>
        <path fill="none" d="M 74 447.5 L 526 447.5" stroke="#C0C0C0" stroke-width="1" opacity="1"></path>
        <path fill="none" d="M 74 504.5 L 526 504.5" stroke="#C0C0C0" stroke-width="1" opacity="1"></path>
        <path fill="none" d="M 74 560.5 L 526 560.5" stroke="#C0C0C0" stroke-width="1" opacity="1"></path>
    </g>
    <g class="highcharts-grid"></g>
    <g class="highcharts-axis">
        <path fill="none" d="M 526.5 560 L 526.5 570" stroke="#C0D0E0" stroke-width="1" opacity="1"></path>
        <path fill="none" d="M 299.5 560 L 299.5 570" stroke="#C0D0E0" stroke-width="1" opacity="1"></path>
        <path fill="none" d="M 73.5 560 L 73.5 570" stroke="#C0D0E0" stroke-width="1" opacity="1"></path>
        <path fill="none" d="M 74 560.5 L 526 560.5" stroke="#C0D0E0" stroke-width="1" visibility="visible"></path>
    </g>
    <g class="highcharts-axis">
        <text x="571.875" text-anchor="middle" transform="translate(0,0) rotate(90 571.875 306.5)"
              class=" highcharts-yaxis-title" style="color:#f7a35c;fill:#f7a35c;" visibility="visible" y="306.5">
            Percentage
        </text>
    </g>
    <g class="highcharts-axis">
        <text x="28.125" text-anchor="middle" transform="translate(0,0) rotate(270 28.125 306.5)"
              class=" highcharts-yaxis-title" style="color:#707070;fill:#707070;" visibility="visible" y="306.5">Values
        </text>
    </g>
    <g class="highcharts-series-group">
        <g class="highcharts-series" visibility="visible" transform="translate(74,53) scale(1 1)"
           clip-path="url(#highcharts-7)">
            <rect x="49.5" y="426.5" width="37" height="81" fill="#7cb5ec" rx="0" ry="0" stroke="#FFFFFF"
                  stroke-width="1"></rect>
            <rect x="275.5" y="372.5" width="37" height="135" fill="#7cb5ec" rx="0" ry="0" stroke="#FFFFFF"
                  stroke-width="1"></rect>
        </g>
        <g class="highcharts-markers" visibility="visible" transform="translate(74,53) scale(1 1)" clip-path="none"></g>
        <g class="highcharts-series" visibility="visible" transform="translate(74,53) scale(1 1)"
           clip-path="url(#highcharts-7)">
            <rect x="94.5" y="367.5" width="37" height="140" fill="#434348" rx="0" ry="0" stroke="#FFFFFF"
                  stroke-width="1"></rect>
            <rect x="320.5" y="174.5" width="37" height="333" fill="#434348" rx="0" ry="0" stroke="#FFFFFF"
                  stroke-width="1"></rect>
        </g>
        <g class="highcharts-markers" visibility="visible" transform="translate(74,53) scale(1 1)" clip-path="none"></g>
        <g class="highcharts-series" visibility="visible" transform="translate(74,53) scale(1 1)"
           clip-path="url(#highcharts-7)">
            <rect x="139.5" y="286.5" width="37" height="221" fill="#90ed7d" rx="0" ry="0" stroke="#FFFFFF"
                  stroke-width="1"></rect>
            <rect x="365.5" y="38.5" width="37" height="469" fill="#90ed7d" rx="0" ry="0" stroke="#FFFFFF"
                  stroke-width="1"></rect>
        </g>
        <g class="highcharts-markers" visibility="visible" transform="translate(74,53) scale(1 1)" clip-path="none"></g>
        <g class="highcharts-series" visibility="visible" transform="translate(74,53) scale(1 1)"
           clip-path="url(#highcharts-7)">
            <path fill="none"
                  d="M 113 272.46938775510205 C 113 272.46938775510205 339 250.24999999999994 339 250.24999999999994"
                  stroke="#f7a35c" stroke-width="2" stroke-linejoin="round" stroke-linecap="round"></path>
        </g>
        <g class="highcharts-markers" visibility="visible" transform="translate(74,53) scale(1 1)" clip-path="none">
            <path fill="#f7a35c"
                  d="M 339 246.24999999999994 C 344.328 246.24999999999994 344.328 254.24999999999994 339 254.24999999999994 C 333.672 254.24999999999994 333.672 246.24999999999994 339 246.24999999999994 Z"></path>
            <path fill="#f7a35c"
                  d="M 113 268.46938775510205 C 118.328 268.46938775510205 118.328 276.46938775510205 113 276.46938775510205 C 107.672 276.46938775510205 107.672 268.46938775510205 113 268.46938775510205 Z"></path>
        </g>
        <g class="highcharts-series" visibility="visible" transform="translate(74,53) scale(1 1)"
           clip-path="url(#highcharts-7)">
            <path fill="none"
                  d="M 113 347.1972789115646 C 113 347.1972789115646 339 369.41666666666663 339 369.41666666666663"
                  stroke="#8085e9" stroke-width="2" stroke-linejoin="round" stroke-linecap="round"></path>
        </g>
        <g class="highcharts-markers" visibility="visible" transform="translate(74,53) scale(1 1)" clip-path="none">
            <path fill="#8085e9"
                  d="M 339 365.41666666666663 L 343 369.41666666666663 339 373.41666666666663 335 369.41666666666663 Z"></path>
            <path fill="#8085e9"
                  d="M 113 343.1972789115646 L 117 347.1972789115646 113 351.1972789115646 109 347.1972789115646 Z"></path>
        </g>
        <g class="highcharts-series" visibility="visible" transform="translate(74,53) scale(1 1)"
           clip-path="url(#highcharts-7)">
            <path fill="none"
                  d="M 113 171.81666666666666 C 113 171.81666666666666 339 171.81666666666666 339 171.81666666666666"
                  stroke="#f15c80" stroke-width="2" stroke-linejoin="round" stroke-linecap="round"></path>
        </g>
        <g class="highcharts-markers" visibility="visible" transform="translate(74,53) scale(1 1)" clip-path="none">
            <path fill="#f15c80"
                  d="M 335 167.81666666666666 L 343 167.81666666666666 343 175.81666666666666 335 175.81666666666666 Z"></path>
            <path fill="#f15c80"
                  d="M 109 167.81666666666666 L 117 167.81666666666666 117 175.81666666666666 109 175.81666666666666 Z"></path>
        </g>
        <g class="highcharts-series" visibility="visible" transform="translate(74,53) scale(1 1)"
           clip-path="url(#highcharts-7)">
            <path fill="none" d="M 113 447.85 C 113 447.85 339 447.85 339 447.85" stroke="#e4d354" stroke-width="2"
                  stroke-linejoin="round" stroke-linecap="round"></path>
        </g>
        <g class="highcharts-markers" visibility="visible" transform="translate(74,53) scale(1 1)" clip-path="none">
            <path fill="#e4d354" d="M 339 443.85 L 343 451.85 335 451.85 Z"></path>
            <path fill="#e4d354" d="M 113 443.85 L 117 451.85 109 451.85 Z"></path>
        </g>
    </g>
    <text x="300" text-anchor="middle" class="highcharts-title"
          style="color:#333333;font-size:18px;fill:#333333;width:536px;" y="25">
        <tspan>ADDCUST Overview</tspan>
    </text>
    <g class="highcharts-legend" transform="translate(130,90)">
        <rect x="0" y="0" width="172" height="137" strokeWidth="0" fill="#FFFFFF" visibility="visible"></rect>
        <g>
            <g>
                <g class="highcharts-legend-item" transform="translate(8,3)">
                    <text x="21" style="color:#333333;font-size:12px;font-weight:bold;cursor:pointer;fill:#333333;"
                          text-anchor="start" y="15">
                        <tspan>Total # rejected errors</tspan>
                    </text>
                    <rect x="0" y="4" width="16" height="12" fill="#7cb5ec"></rect>
                </g>
                <g class="highcharts-legend-item" transform="translate(8,21)">
                    <text x="21" y="15"
                          style="color:#333333;font-size:12px;font-weight:bold;cursor:pointer;fill:#333333;"
                          text-anchor="start">
                        <tspan>Total # succesful</tspan>
                    </text>
                    <rect x="0" y="4" width="16" height="12" fill="#434348"></rect>
                </g>
                <g class="highcharts-legend-item" transform="translate(8,39)">
                    <text x="21" y="15"
                          style="color:#333333;font-size:12px;font-weight:bold;cursor:pointer;fill:#333333;"
                          text-anchor="start">
                        <tspan>Total # orders</tspan>
                    </text>
                    <rect x="0" y="4" width="16" height="12" fill="#90ed7d"></rect>
                </g>
                <g class="highcharts-legend-item" transform="translate(8,57)">
                    <path fill="none" d="M 0 11 L 16 11" stroke="#f7a35c" stroke-width="2"></path>
                    <path fill="#f7a35c"
                          d="M 8 7 C 13.328 7 13.328 15 8 15 C 2.6719999999999997 15 2.6719999999999997 7 8 7 Z"></path>
                    <text x="21" y="15"
                          style="color:#333333;font-size:12px;font-weight:bold;cursor:pointer;fill:#333333;"
                          text-anchor="start">
                        <tspan>% total succesful</tspan>
                    </text>
                </g>
                <g class="highcharts-legend-item" transform="translate(8,75)">
                    <path fill="none" d="M 0 11 L 16 11" stroke="#8085e9" stroke-width="2"></path>
                    <path fill="#8085e9" d="M 8 7 L 12 11 8 15 4 11 Z"></path>
                    <text x="21" y="15"
                          style="color:#333333;font-size:12px;font-weight:bold;cursor:pointer;fill:#333333;"
                          text-anchor="start">
                        <tspan>% total rejected</tspan>
                    </text>
                </g>
                <g class="highcharts-legend-item" transform="translate(8,93)">
                    <path fill="none" d="M 0 11 L 16 11" stroke="#f15c80" stroke-width="2"></path>
                    <path fill="#f15c80" d="M 4 7 L 12 7 12 15 4 15 Z"></path>
                    <text x="21" y="15"
                          style="color:#333333;font-size:12px;font-weight:bold;cursor:pointer;fill:#333333;"
                          text-anchor="start">
                        <tspan>KPI % total succesful</tspan>
                    </text>
                </g>
                <g class="highcharts-legend-item" transform="translate(8,111)">
                    <path fill="none" d="M 0 11 L 16 11" stroke="#e4d354" stroke-width="2"></path>
                    <path fill="#e4d354" d="M 8 7 L 12 15 4 15 Z"></path>
                    <text x="21" y="15"
                          style="color:#333333;font-size:12px;font-weight:bold;cursor:pointer;fill:#333333;"
                          text-anchor="start">
                        <tspan>KPI % total rejected</tspan>
                    </text>
                </g>
            </g>
        </g>
    </g>
    <g class="highcharts-axis-labels highcharts-xaxis-labels">
        <text x="187" text-anchor="middle" style="width:206px;color:#606060;cursor:default;font-size:11px;fill:#606060;"
              y="580" opacity="1">
            <tspan>08-15 October</tspan>
        </text>
        <text x="413" text-anchor="middle" style="width:206px;color:#606060;cursor:default;font-size:11px;fill:#606060;"
              y="580" opacity="1">
            <tspan>16-23 October</tspan>
        </text>
    </g>
    <g class="highcharts-axis-labels highcharts-yaxis-labels">
        <text x="541" text-anchor="start" style="width:178px;color:#f7a35c;cursor:default;font-size:11px;fill:#f7a35c;"
              y="507.16666666666663" opacity="1">0
        </text>
        <text x="541" text-anchor="start" style="width:178px;color:#f7a35c;cursor:default;font-size:11px;fill:#f7a35c;"
              y="450.8333333333333" opacity="1">20
        </text>
        <text x="541" text-anchor="start" style="width:178px;color:#f7a35c;cursor:default;font-size:11px;fill:#f7a35c;"
              y="394.5" opacity="1">40
        </text>
        <text x="541" text-anchor="start" style="width:178px;color:#f7a35c;cursor:default;font-size:11px;fill:#f7a35c;"
              y="338.16666666666663" opacity="1">60
        </text>
        <text x="541" text-anchor="start" style="width:178px;color:#f7a35c;cursor:default;font-size:11px;fill:#f7a35c;"
              y="281.8333333333333" opacity="1">80
        </text>
        <text x="541" text-anchor="start" style="width:178px;color:#f7a35c;cursor:default;font-size:11px;fill:#f7a35c;"
              y="225.5" opacity="1">100
        </text>
        <text x="541" text-anchor="start" style="width:178px;color:#f7a35c;cursor:default;font-size:11px;fill:#f7a35c;"
              y="563.5" opacity="1">-20
        </text>
        <text x="541" text-anchor="start" style="width:178px;color:#f7a35c;cursor:default;font-size:11px;fill:#f7a35c;"
              y="169.16666666666663" opacity="1">120
        </text>
        <text x="541" text-anchor="start" style="width:178px;color:#f7a35c;cursor:default;font-size:11px;fill:#f7a35c;"
              y="112.83333333333331" opacity="1">140
        </text>
        <text x="541" text-anchor="start" style="width:178px;color:#f7a35c;cursor:default;font-size:11px;fill:#f7a35c;"
              y="56.49999999999994" opacity="1">160
        </text>
    </g>
    <g class="highcharts-axis-labels highcharts-yaxis-labels">
        <text x="59" text-anchor="end" style="width:178px;color:#7cb5ec;cursor:default;font-size:11px;fill:#7cb5ec;"
              y="563.5" opacity="1">0
        </text>
        <text x="59" text-anchor="end" style="width:178px;color:#7cb5ec;cursor:default;font-size:11px;fill:#7cb5ec;"
              y="507.16666666666663" opacity="1">25
        </text>
        <text x="59" text-anchor="end" style="width:178px;color:#7cb5ec;cursor:default;font-size:11px;fill:#7cb5ec;"
              y="450.8333333333333" opacity="1">50
        </text>
        <text x="59" text-anchor="end" style="width:178px;color:#7cb5ec;cursor:default;font-size:11px;fill:#7cb5ec;"
              y="394.5" opacity="1">75
        </text>
        <text x="59" text-anchor="end" style="width:178px;color:#7cb5ec;cursor:default;font-size:11px;fill:#7cb5ec;"
              y="338.16666666666663" opacity="1">100
        </text>
        <text x="59" text-anchor="end" style="width:178px;color:#7cb5ec;cursor:default;font-size:11px;fill:#7cb5ec;"
              y="281.8333333333333" opacity="1">125
        </text>
        <text x="59" text-anchor="end" style="width:178px;color:#7cb5ec;cursor:default;font-size:11px;fill:#7cb5ec;"
              y="225.5" opacity="1">150
        </text>
        <text x="59" text-anchor="end" style="width:178px;color:#7cb5ec;cursor:default;font-size:11px;fill:#7cb5ec;"
              y="169.16666666666663" opacity="1">175
        </text>
        <text x="59" text-anchor="end" style="width:178px;color:#7cb5ec;cursor:default;font-size:11px;fill:#7cb5ec;"
              y="112.83333333333331" opacity="1">200
        </text>
        <text x="59" text-anchor="end" style="width:178px;color:#7cb5ec;cursor:default;font-size:11px;fill:#7cb5ec;"
              y="56.5" opacity="1">225
        </text>
    </g>
    <g class="highcharts-tooltip" style="cursor:default;padding:0;white-space:nowrap;" transform="translate(0,-9999)">
        <path fill="none"
              d="M 3 0 L 13 0 C 16 0 16 0 16 3 L 16 13 C 16 16 16 16 13 16 L 3 16 C 0 16 0 16 0 13 L 0 3 C 0 0 0 0 3 0"
              stroke="black" stroke-opacity="0.049999999999999996" stroke-width="5" transform="translate(1, 1)"></path>
        <path fill="none"
              d="M 3 0 L 13 0 C 16 0 16 0 16 3 L 16 13 C 16 16 16 16 13 16 L 3 16 C 0 16 0 16 0 13 L 0 3 C 0 0 0 0 3 0"
              stroke="black" stroke-opacity="0.09999999999999999" stroke-width="3" transform="translate(1, 1)"></path>
        <path fill="none"
              d="M 3 0 L 13 0 C 16 0 16 0 16 3 L 16 13 C 16 16 16 16 13 16 L 3 16 C 0 16 0 16 0 13 L 0 3 C 0 0 0 0 3 0"
              stroke="black" stroke-opacity="0.15" stroke-width="1" transform="translate(1, 1)"></path>
        <path fill="rgb(249, 249, 249)" fill-opacity=" .85"
              d="M 3 0 L 13 0 C 16 0 16 0 16 3 L 16 13 C 16 16 16 16 13 16 L 3 16 C 0 16 0 16 0 13 L 0 3 C 0 0 0 0 3 0"></path>
        <text x="8" style="font-size:12px;color:#333333;fill:#333333;" y="21"></text>
    </g>
</svg>